<svg xmlns="http://www.w3.org/2000/svg" viewBox="0 0 64 64"><path fill="#28c2ad" d="M57.91,31.18a3.5,3.5,0,0,0-5.44-2,4.13,4.13,0,0,1-2.4.85H48a16.1,16.1,0,0,0-3.59-8.33l.2-.2A13.79,13.79,0,0,1,48.33,19a2.46,2.46,0,0,0,.64-.46,2.51,2.51,0,0,0-.54-3.95,2.47,2.47,0,0,0-2.42,0,2.53,2.53,0,0,0-1,1,15.36,15.36,0,0,1-2.6,3.86l-.06.06A16.1,16.1,0,0,0,34,16V14a4.32,4.32,0,0,1,.86-2.48,3.47,3.47,0,0,0,.64-2,3.5,3.5,0,1,0-6.35,2,4.13,4.13,0,0,1,.85,2.4v2a16.1,16.1,0,0,0-8.32,3.59l-.21-.21A13.79,13.79,0,0,1,19,15.66a2.46,2.46,0,0,0-.46-.64,2.51,2.51,0,0,0-3.95.54,2.47,2.47,0,0,0,0,2.42,2.53,2.53,0,0,0,1,1,15.36,15.36,0,0,1,3.86,2.6l.07.07A16.1,16.1,0,0,0,16,30h-2a4.13,4.13,0,0,1-2.4-.85,3.5,3.5,0,1,0,0,5.71A4.32,4.32,0,0,1,14,34h2a16.1,16.1,0,0,0,3.59,8.33l-.06.06A15.36,15.36,0,0,1,15.63,45a2.53,2.53,0,0,0-1,1,2.47,2.47,0,0,0,0,2.42,2.51,2.51,0,0,0,3.95.54,2.45,2.45,0,0,0,.46-.64,13.79,13.79,0,0,1,2.44-3.68l.2-.2A16.1,16.1,0,0,0,30,48v2a4.13,4.13,0,0,1-.85,2.4,3.5,3.5,0,1,0,5.71,0A4.32,4.32,0,0,1,34,50V48a16.1,16.1,0,0,0,8.33-3.6l.06.06A15.37,15.37,0,0,1,45,48.36a2.53,2.53,0,0,0,1,1,2.47,2.47,0,0,0,2.42,0A2.51,2.51,0,0,0,49,45.43a2.46,2.46,0,0,0-.64-.46,13.79,13.79,0,0,1-3.68-2.44l-.2-.2A16.1,16.1,0,0,0,48,34h2a4.32,4.32,0,0,1,2.48.86,3.47,3.47,0,0,0,2,.64A3.51,3.51,0,0,0,57.91,31.18Z"/><circle cx="32" cy="32" r="12.29" fill="#0fabac"/><circle cx="32" cy="24.57" r="1.77" fill="#0d6d6d"/><circle cx="38.36" cy="33.77" r="2.2" fill="#0d6d6d"/><path fill="#1fad95" d="M40.66,45.66a53.22,53.22,0,0,1-16.1-28,16.05,16.05,0,0,0-2.88,1.9l-.21-.21A13.79,13.79,0,0,1,19,15.66a2.46,2.46,0,0,0-.46-.64,2.51,2.51,0,0,0-3.95.54,2.47,2.47,0,0,0,0,2.42,2.53,2.53,0,0,0,1,1,15.36,15.36,0,0,1,3.86,2.6l.07.07A16.1,16.1,0,0,0,16,30h-2a4.13,4.13,0,0,1-2.4-.85,3.5,3.5,0,1,0,0,5.71A4.32,4.32,0,0,1,14,34h2a16.1,16.1,0,0,0,3.59,8.33l-.06.06A15.36,15.36,0,0,1,15.63,45a2.53,2.53,0,0,0-1,1,2.47,2.47,0,0,0,0,2.42,2.51,2.51,0,0,0,3.95.54,2.45,2.45,0,0,0,.46-.64,13.79,13.79,0,0,1,2.44-3.68l.2-.2A16.1,16.1,0,0,0,30,48v2a4.13,4.13,0,0,1-.85,2.4,3.5,3.5,0,1,0,5.71,0A4.32,4.32,0,0,1,34,50V48A16.11,16.11,0,0,0,40.66,45.66Z"/><path fill="#0f9390" d="M19.71,32A12.29,12.29,0,0,0,37.8,42.84,52.94,52.94,0,0,1,25.58,21.53,12.27,12.27,0,0,0,19.71,32Z"/><circle cx="28.77" cy="33.75" r="4.32" fill="#099692"/><path fill="#0b6d66" d="M28.63,29.45a4.31,4.31,0,1,0,3.78,6.63A52.61,52.61,0,0,1,28.63,29.45Z"/><path fill="none" stroke="#0d826c" stroke-linecap="round" stroke-linejoin="round" d="M42.11,25A12.3,12.3,0,1,1,32,19.71"/><rect width="64" height="64" fill="none"/></svg>