<svg xmlns="http://www.w3.org/2000/svg" xmlns:xlink="http://www.w3.org/1999/xlink" viewBox="0 0 64 64"><defs><style>.cls-1{fill:url(#linear-gradient);}.cls-2{fill:url(#linear-gradient-2);}.cls-3{fill:#77cacb;}.cls-4{fill:url(#linear-gradient-3);}.cls-5{fill:url(#linear-gradient-4);}.cls-6{fill:#cf4055;}.cls-7{fill:#231f20;}</style><linearGradient id="linear-gradient" x1="23" y1="45" x2="23" y2="1" gradientUnits="userSpaceOnUse"><stop offset="0" stop-color="#a0a6ba"/><stop offset="1" stop-color="#c6ccda"/></linearGradient><linearGradient id="linear-gradient-2" x1="23" y1="40" x2="23" y2="6" gradientUnits="userSpaceOnUse"><stop offset="0" stop-color="#9dd5df"/><stop offset="1" stop-color="#c3e1f5"/></linearGradient><linearGradient id="linear-gradient-3" x1="51.73" y1="63" x2="51.73" y2="40.46" gradientUnits="userSpaceOnUse"><stop offset="0" stop-color="#474f72"/><stop offset="1" stop-color="#878c9f"/></linearGradient><linearGradient id="linear-gradient-4" x1="23" y1="30" x2="23" y2="16" gradientUnits="userSpaceOnUse"><stop offset="0" stop-color="#da5466"/><stop offset="1" stop-color="#f4929c"/></linearGradient></defs><title>Searching</title><g id="Searching"><path class="cls-1" d="M43.5,40.5,40,37a22,22,0,1,0-3,3L40.5,43.5"/><circle class="cls-2" cx="23" cy="23" r="17"/><path class="cls-3" d="M6,23a17,17,0,0,1,34,0c0,.33,0,.67,0,1A17,17,0,0,0,6,24C6,23.67,6,23.33,6,23Z"/><path class="cls-4" d="M63,59.46h0A3.53,3.53,0,0,1,59.46,63h0A3.54,3.54,0,0,1,57,62L41.5,46.5a3.54,3.54,0,0,1,0-5h0a3.54,3.54,0,0,1,5,0L62,57A3.54,3.54,0,0,1,63,59.46Z"/><circle class="cls-5" cx="23" cy="23" r="7"/><path class="cls-6" d="M30,23a7,7,0,0,1-14,0,5.47,5.47,0,0,1,.08-1,7,7,0,0,0,13.84,0A5.47,5.47,0,0,1,30,23Z"/><path class="cls-7" d="M23,5A18,18,0,1,0,41,23,18,18,0,0,0,23,5Zm0,34A16,16,0,1,1,39,23,16,16,0,0,1,23,39Z"/><path class="cls-7" d="M62.67,56.26,47.21,40.79a4.53,4.53,0,0,0-3.32-1.31L41.32,36.9a23,23,0,1,0-4.42,4.42l2.58,2.57a4.53,4.53,0,0,0,1.31,3.32L56.26,62.67A4.47,4.47,0,0,0,59.46,64,4.54,4.54,0,0,0,64,59.46,4.47,4.47,0,0,0,62.67,56.26Zm-25-17a1,1,0,0,0-1.35-.06,21,21,0,1,1,2.87-2.87,1,1,0,0,0,.06,1.35l2.43,2.42a4,4,0,0,0-1.59,1.59ZM59.46,62a2.52,2.52,0,0,1-1.79-.74L42.21,45.79a2.53,2.53,0,0,1,0-3.58,2.53,2.53,0,0,1,3.58,0L61.26,57.67A2.54,2.54,0,0,1,59.46,62Z"/><path class="cls-7" d="M32,22H30.94a8.13,8.13,0,0,0-1.62-3.9h0l1.39-1.39a1,1,0,0,0-1.42-1.42L27.9,16.68h0A8.13,8.13,0,0,0,24,15.06V14a1,1,0,0,0-2,0v1.06a8.13,8.13,0,0,0-3.9,1.62h0l-1.39-1.39a1,1,0,0,0-1.42,1.42l1.39,1.39h0A8.13,8.13,0,0,0,15.06,22H14a1,1,0,0,0,0,2h1.06a8.13,8.13,0,0,0,1.62,3.9h0l-1.39,1.39a1,1,0,0,0,0,1.42,1,1,0,0,0,1.42,0l1.39-1.39h0A8.13,8.13,0,0,0,22,30.94V32a1,1,0,0,0,2,0V30.94a8.13,8.13,0,0,0,3.9-1.62h0l1.39,1.39a1,1,0,0,0,1.42,0,1,1,0,0,0,0-1.42L29.32,27.9h0A8.13,8.13,0,0,0,30.94,24H32a1,1,0,0,0,0-2ZM18.76,27.24A5.86,5.86,0,0,1,17.09,24h0a1,1,0,0,0,0-2h0A6,6,0,0,1,22,17.09h0a1,1,0,0,0,2,0h0A6,6,0,0,1,28.91,22h0a1,1,0,0,0,0,2h0A6,6,0,0,1,24,28.91h0a1,1,0,0,0-2,0h0A5.86,5.86,0,0,1,18.76,27.24Z"/><circle class="cls-7" cx="25.5" cy="21.5" r="1.5"/><circle class="cls-7" cx="20" cy="22" r="1"/><circle class="cls-7" cx="23" cy="25" r="1"/></g></svg>